<svg width="32" height="32" viewBox="0 0 32 32" fill="none" xmlns="http://www.w3.org/2000/svg">
    <g clip-path="url(#clip0_76_3680)">
        <path
            d="M28.6805 18.5661C27.8095 16.7027 26.6734 14.9304 25.1964 13.1712C24.5265 12.3628 23.8098 11.5969 23.0504 10.8778H10.6288C9.60633 11.829 8.68481 12.8455 7.87691 13.927C6.24847 16.0902 5.22596 17.8625 4.53167 19.6999C3.58743 22.2501 2.5725 26.3432 3.29456 28.965C4.03935 31.6104 6.43782 33.4478 9.11401 33.4478H24.6536C25.4867 33.4478 26.3073 33.2653 27.0268 32.9135C29.2738 31.8189 30.5235 29.9293 30.6245 27.4404C30.7444 24.5631 29.9138 21.2193 28.6805 18.5661ZM16.8396 27.0494C14.2644 27.0494 12.1563 24.8863 12.1563 22.2279C12.1563 19.5565 14.2644 17.3933 16.8396 17.3933C19.4148 17.3933 21.5229 19.5565 21.5229 22.2279C21.5229 24.8863 19.4148 27.0494 16.8396 27.0494ZM23.6563 4.36216L22.0026 8.27152H11.8154L10.0355 4.40126C9.75781 3.78879 9.98504 3.04601 10.5531 2.7072C11.6513 2.06867 14.9713 0.113998 17.7233 2.9157C18.3418 3.5021 19.3896 4.03638 21.9143 2.68114C22.394 2.43355 22.9747 2.51173 23.366 2.88964C23.7573 3.26754 23.8709 3.85395 23.6563 4.36216Z"
            fill="#326BFF" />
        <path
            d="M28.6805 18.5661C27.8095 16.7027 26.6734 14.9304 25.1964 13.1712C24.5265 12.3628 23.8098 11.5969 23.0504 10.8778H10.6288C9.60633 11.829 8.68481 12.8455 7.87691 13.927C6.24847 16.0902 5.22596 17.8625 4.53167 19.6999C3.58743 22.2501 2.5725 26.3432 3.29456 28.965C4.03935 31.6104 6.43782 33.4478 9.11401 33.4478H24.6536C25.4867 33.4478 26.3073 33.2653 27.0268 32.9135C29.2738 31.8189 30.5235 29.9293 30.6245 27.4404C30.7444 24.5631 29.9138 21.2193 28.6805 18.5661ZM16.8396 27.0494C14.2644 27.0494 12.1563 24.8863 12.1563 22.2279C12.1563 19.5565 14.2644 17.3933 16.8396 17.3933C19.4148 17.3933 21.5229 19.5565 21.5229 22.2279C21.5229 24.8863 19.4148 27.0494 16.8396 27.0494ZM23.6563 4.36216L22.0026 8.27152H11.8154L10.0355 4.40126C9.75781 3.78879 9.98504 3.04601 10.5531 2.7072C11.6513 2.06867 14.9713 0.113998 17.7233 2.9157C18.3418 3.5021 19.3896 4.03638 21.9143 2.68114C22.394 2.43355 22.9747 2.51173 23.366 2.88964C23.7573 3.26754 23.8709 3.85395 23.6563 4.36216Z"
            fill="#326BFF" />
    </g>
    <defs>
        <clipPath id="clip0_76_3680">
            <rect width="32" height="32" fill="white" />
        </clipPath>
    </defs>
</svg>
