<svg width="32" height="32" viewBox="0 0 32 32" fill="none" xmlns="http://www.w3.org/2000/svg">
    <path
        d="M5.64752 16C4.64906 16 3.69149 16.3966 2.98547 17.1026C2.27945 17.8087 1.88281 18.7662 1.88281 19.7647V27.2941C1.88281 28.2926 2.27945 29.2501 2.98547 29.9562C3.69149 30.6622 4.64906 31.0588 5.64752 31.0588C6.64598 31.0588 7.60355 30.6622 8.30957 29.9562C9.01559 29.2501 9.41222 28.2926 9.41222 27.2941V19.7647C9.41222 18.7662 9.01559 17.8087 8.30957 17.1026C7.60355 16.3966 6.64598 16 5.64752 16ZM16.0005 0.941162C15.002 0.941162 14.0444 1.3378 13.3384 2.04382C12.6324 2.74984 12.2358 3.70741 12.2358 4.70587V27.2941C12.2358 28.2926 12.6324 29.2501 13.3384 29.9562C14.0444 30.6622 15.002 31.0588 16.0005 31.0588C16.9989 31.0588 17.9565 30.6622 18.6625 29.9562C19.3685 29.2501 19.7652 28.2926 19.7652 27.2941V4.70587C19.7652 3.70741 19.3685 2.74984 18.6625 2.04382C17.9565 1.3378 16.9989 0.941162 16.0005 0.941162ZM26.3534 8.47057C25.3549 8.47057 24.3974 8.86721 23.6914 9.57323C22.9853 10.2793 22.5887 11.2368 22.5887 12.2353V27.2941C22.5887 28.2926 22.9853 29.2501 23.6914 29.9562C24.3974 30.6622 25.3549 31.0588 26.3534 31.0588C27.3519 31.0588 28.3094 30.6622 29.0155 29.9562C29.7215 29.2501 30.1181 28.2926 30.1181 27.2941V12.2353C30.1181 11.2368 29.7215 10.2793 29.0155 9.57323C28.3094 8.86721 27.3519 8.47057 26.3534 8.47057Z"
        fill="#ADADAD" />
</svg>
