<svg width="32" height="32" viewBox="0 0 32 32" fill="none" xmlns="http://www.w3.org/2000/svg">
    <path
        d="M5.9484 3.12549C3.75636 3.12549 1.93848 4.89424 1.93848 7.07494V25.2235C1.93848 27.4042 3.75258 29.173 5.94462 29.173H25.9753C28.1674 29.173 29.9815 27.4042 29.9815 25.2235V23.6551H24.7281C22.3849 23.6551 20.465 21.7465 20.465 19.4071C20.465 17.0638 22.3849 15.1477 24.7243 15.1477H29.9815V12.0788C29.9815 9.89813 28.1674 8.14072 25.9753 8.14072H23.4658V7.07494C23.4658 4.89424 21.6593 3.12549 19.471 3.12549H5.9484ZM5.9484 5.12856H19.471C20.6048 5.12856 21.4741 5.99404 21.4741 7.07494V8.14072H3.94533V7.07494C3.94533 5.99404 4.80702 5.12856 5.9484 5.12856ZM24.7243 17.1508C24.4271 17.1472 24.1321 17.2032 23.8567 17.3153C23.5814 17.4274 23.3312 17.5935 23.121 17.8037C22.9108 18.0139 22.7447 18.2641 22.6326 18.5394C22.5204 18.8148 22.4645 19.1098 22.4681 19.4071C22.4645 19.7043 22.5204 19.9993 22.6326 20.2747C22.7447 20.55 22.9108 20.8002 23.121 21.0104C23.3312 21.2206 23.5814 21.3867 23.8567 21.4988C24.1321 21.611 24.4271 21.6669 24.7243 21.6633H29.9815V17.1508H24.7243Z"
        fill="#ADADAD" />
</svg>
