<svg width="26" height="28" viewBox="0 0 26 28" fill="none" xmlns="http://www.w3.org/2000/svg">
    <path d="M1.46785 8.87492H24.5331C24.6721 8.87494 24.8096 8.84657 24.9373 8.79154C25.065 8.73652 25.18 8.656 25.2755 8.55492C25.3709 8.45384 25.4447 8.33434 25.4923 8.20373C25.5399 8.07313 25.5604 7.93417 25.5524 7.79539L25.5396 7.53048C25.3737 4.84977 23.133 2.74992 20.4375 2.74992H19.1257V1.72909C19.1257 1.45834 19.0182 1.19869 18.8267 1.00725C18.6353 0.815804 18.3756 0.708252 18.1049 0.708252C17.8341 0.708252 17.5745 0.815804 17.383 1.00725C17.1916 1.19869 17.084 1.45834 17.084 1.72909V2.74992H8.91738V1.72909C8.91738 1.45834 8.80982 1.19869 8.61838 1.00725C8.42694 0.815804 8.16729 0.708252 7.89654 0.708252C7.6258 0.708252 7.36615 0.815804 7.17471 1.00725C6.98326 1.19869 6.87571 1.45834 6.87571 1.72909V2.74992H5.56394C2.86843 2.74992 0.627189 4.85028 0.461304 7.53252L0.448544 7.7959C0.440398 7.93469 0.460733 8.07369 0.508297 8.20433C0.555862 8.33498 0.629651 8.45451 0.725126 8.55558C0.820602 8.65665 0.935744 8.73711 1.06347 8.79203C1.1912 8.84695 1.32881 8.87516 1.46785 8.87492ZM25.7121 11.9119C25.7056 11.6456 25.5952 11.3925 25.4046 11.2065C25.2139 11.0206 24.9581 10.9165 24.6918 10.9166H1.30962C1.04328 10.9166 0.787493 11.0207 0.596795 11.2066C0.406096 11.3926 0.295571 11.6456 0.288783 11.9119C0.196564 15.524 0.260937 19.1384 0.481721 22.745C0.640971 25.3073 2.69336 27.3591 5.25463 27.5184C10.4133 27.8416 15.5871 27.8414 20.7458 27.5179C23.3081 27.3586 25.3599 25.3062 25.5197 22.7445C25.7392 19.2134 25.804 15.5685 25.7121 11.9119ZM18.1049 17.0416C17.6988 17.0416 17.3093 16.8803 17.0221 16.5931C16.735 16.3059 16.5736 15.9164 16.5736 15.5103C16.5736 15.1042 16.735 14.7147 17.0221 14.4276C17.3093 14.1404 17.6988 13.9791 18.1049 13.9791C18.511 13.9791 18.9005 14.1404 19.1876 14.4276C19.4748 14.7147 19.6361 15.1042 19.6361 15.5103C19.6361 15.9164 19.4748 16.3059 19.1876 16.5931C18.9005 16.8803 18.511 17.0416 18.1049 17.0416ZM19.6361 20.6145C19.6361 21.0206 19.4748 21.4101 19.1876 21.6973C18.9005 21.9844 18.511 22.1458 18.1049 22.1458C17.6988 22.1458 17.3093 21.9844 17.0221 21.6973C16.735 21.4101 16.5736 21.0206 16.5736 20.6145C16.5736 20.2084 16.735 19.8189 17.0221 19.5317C17.3093 19.2446 17.6988 19.0833 18.1049 19.0833C18.511 19.0833 18.9005 19.2446 19.1876 19.5317C19.4748 19.8189 19.6361 20.2084 19.6361 20.6145ZM7.89654 19.0833C8.30266 19.0833 8.69214 19.2446 8.9793 19.5317C9.26647 19.8189 9.42779 20.2084 9.42779 20.6145C9.42779 21.0206 9.26647 21.4101 8.9793 21.6973C8.69214 21.9844 8.30266 22.1458 7.89654 22.1458C7.49043 22.1458 7.10095 21.9844 6.81379 21.6973C6.52662 21.4101 6.36529 21.0206 6.36529 20.6145C6.36529 20.2084 6.52662 19.8189 6.81379 19.5317C7.10095 19.2446 7.49043 19.0833 7.89654 19.0833ZM6.36529 15.5103C6.36529 15.3092 6.4049 15.1101 6.48185 14.9243C6.55881 14.7386 6.6716 14.5698 6.81379 14.4276C6.95598 14.2854 7.12478 14.1726 7.31056 14.0956C7.49634 14.0187 7.69546 13.9791 7.89654 13.9791C8.09763 13.9791 8.29675 14.0187 8.48253 14.0956C8.66831 14.1726 8.83711 14.2854 8.9793 14.4276C9.12149 14.5698 9.23428 14.7386 9.31123 14.9243C9.38819 15.1101 9.42779 15.3092 9.42779 15.5103C9.42779 15.9164 9.26647 16.3059 8.9793 16.5931C8.69214 16.8803 8.30266 17.0416 7.89654 17.0416C7.49043 17.0416 7.10095 16.8803 6.81379 16.5931C6.52662 16.3059 6.36529 15.9164 6.36529 15.5103ZM11.4695 20.6145C11.4695 20.2084 11.6308 19.8189 11.918 19.5317C12.2051 19.2446 12.5946 19.0833 13.0007 19.0833C13.4068 19.0833 13.7963 19.2446 14.0835 19.5317C14.3706 19.8189 14.532 20.2084 14.532 20.6145C14.532 21.0206 14.3706 21.4101 14.0835 21.6973C13.7963 21.9844 13.4068 22.1458 13.0007 22.1458C12.5946 22.1458 12.2051 21.9844 11.918 21.6973C11.6308 21.4101 11.4695 21.0206 11.4695 20.6145ZM13.0007 17.0416C12.5946 17.0416 12.2051 16.8803 11.918 16.5931C11.6308 16.3059 11.4695 15.9164 11.4695 15.5103C11.4695 15.1042 11.6308 14.7147 11.918 14.4276C12.2051 14.1404 12.5946 13.9791 13.0007 13.9791C13.4068 13.9791 13.7963 14.1404 14.0835 14.4276C14.3706 14.7147 14.532 15.1042 14.532 15.5103C14.532 15.9164 14.3706 16.3059 14.0835 16.5931C13.7963 16.8803 13.4068 17.0416 13.0007 17.0416Z" fill="#326BFF"/>
</svg>
