<svg width="30" height="22" viewBox="0 0 32 23" fill="none" xmlns="http://www.w3.org/2000/svg">
    <path d="M30.4308 0.698138C30.2311 0.495895 29.9932 0.335319 29.731 0.225723C29.4687 0.116127 29.1873 0.0596924 28.9031 0.0596924C28.6189 0.0596924 28.3375 0.116127 28.0752 0.225723C27.813 0.335319 27.5751 0.495895 27.3754 0.698138L11.3547 16.7436L4.62439 9.99052C4.36472 9.73889 4.04692 9.55529 3.69923 9.45602C3.35154 9.35675 2.98471 9.34489 2.63133 9.42149C2.27795 9.49809 1.94896 9.66078 1.67357 9.89511C1.39819 10.1294 1.18495 10.4282 1.05278 10.7647C0.893312 11.169 0.857232 11.6115 0.949095 12.0362C1.04096 12.461 1.25664 12.849 1.5689 13.1513L9.82697 21.4094C10.0269 21.6112 10.2648 21.7715 10.5271 21.8808C10.7893 21.9902 11.0706 22.0465 11.3547 22.0465C11.6388 22.0465 11.9201 21.9902 12.1823 21.8808C12.4446 21.7715 12.6825 21.6112 12.8825 21.4094L30.4308 3.86098C30.6491 3.65963 30.8233 3.41525 30.9424 3.14326C31.0615 2.87126 31.123 2.57753 31.123 2.28059C31.123 1.98364 31.0615 1.68992 30.9424 1.41792C30.8233 1.14592 30.6491 0.901551 30.4308 0.700202V0.698138Z" fill="white"/>
</svg>
