<svg width="36" height="31" viewBox="0 0 36 31" fill="none" xmlns="http://www.w3.org/2000/svg">
    <g clip-path="url(#clip0_758_2736)">
        <path d="M16.1035 1.75C24.9771 1.75 32.2451 8.30292 32.2451 16.4014C32.2451 24.4998 24.9771 31.0527 16.1035 31.0527C13.6279 31.0527 11.2532 30.5583 9.0459 29.5791L0.0507812 31.2461L-0.322266 31.3145L-0.239258 30.9453L1.58496 22.8135C0.507718 20.8041 -0.0371094 18.6495 -0.0371094 16.4014C-0.0370843 8.30305 7.23042 1.75022 16.1035 1.75ZM16.1035 3.62109C8.29163 3.62131 1.97659 9.37857 1.97656 16.4014C1.97656 18.4577 2.49383 20.4207 3.53125 22.2344H3.53223L3.65527 22.4492L3.7041 22.5332L3.68262 22.6279L2.26953 28.9189L9.24805 27.6338L9.32715 27.6191L9.39941 27.6533L9.63672 27.7646H9.63574C11.6451 28.7004 13.8223 29.1816 16.1035 29.1816C23.9159 29.1816 30.2314 23.4243 30.2314 16.4014C30.2314 9.37844 23.9159 3.62109 16.1035 3.62109Z" fill="black" stroke="black" stroke-width="0.5"/>
    </g>
    <circle cx="29" cy="7" r="6" fill="#326BFF" stroke="white" stroke-width="2"/>
    <defs>
        <clipPath id="clip0_758_2736">
            <rect width="33" height="30" fill="white" transform="translate(0 1)"/>
        </clipPath>
    </defs>
</svg>
