<?xml version="1.0" encoding="UTF-8" standalone="no"?>
<svg
   version="1.1"
   width="141.7323pt"
   height="141.7323pt"
   id="svg16"
   viewBox="0 0 141.7323 141.7323"
   sodipodi:docname="GSR logistics logo.cdr"
   xmlns:inkscape="http://www.inkscape.org/namespaces/inkscape"
   xmlns:sodipodi="http://sodipodi.sourceforge.net/DTD/sodipodi-0.dtd"
   xmlns="http://www.w3.org/2000/svg"
   xmlns:svg="http://www.w3.org/2000/svg">
  <defs
     id="defs16" />
  <sodipodi:namedview
     id="namedview16"
     pagecolor="#ffffff"
     bordercolor="#000000"
     borderopacity="0.25"
     inkscape:showpageshadow="2"
     inkscape:pageopacity="0.0"
     inkscape:pagecheckerboard="0"
     inkscape:deskcolor="#d1d1d1"
     inkscape:document-units="pt" />
  <g
     id="Layer1000">
    <path
       d="m 59.712,50.503 -4.341,0.1527 v 14.1217 l 7.4669,4.3967 14.3735,-8.3307 v -6.647 l -16.0579,9.278 -1.5841,-1.0526 z"
       style="fill:#000000;fill-rule:evenodd"
       id="path1" />
    <path
       d="m 80.8739,54.1038 h 4.0696 v -6.4187 l -7.065,-4.0367 -14.5291,8.5711 0.0252,5.5038 15.6288,-8.819 1.8705,1.2225 z"
       style="fill:#000000;fill-rule:evenodd"
       id="path2" />
    <path
       d="m 84.9435,53.9002 -4.0696,0.0127 v 8.9651 l -14.2435,8.5464 3.3989,2.057 14.9142,-8.5684 z"
       style="fill:#000000;fill-rule:evenodd"
       id="path3" />
    <path
       d="m 126.2948,83.7687 c 0,2.0546 -0.3698,3.5353 1.1659,4.3959 1.0081,0.5648 6.2681,-0.0776 7.1154,0.3455 1.0659,0.5322 0.789,2.0413 -0.4134,2.0413 h -4.4766 c -0.7099,0 -1.0296,-0.4175 -1.0852,-1.0852 h -2.3061 v 1.4922 c 0,0.8471 1.052,1.8991 1.8991,1.8991 h 7.1896 c 2.6083,0 2.1705,-3.1088 2.1705,-4.4766 0,-2.5005 -2.611,-2.3064 -3.7983,-2.3061 -1.0398,3e-4 -2.0813,-0.0059 -3.121,0.001 -1.1425,0.0076 -2.0338,0.0496 -2.0338,-1.0862 0,-0.8086 0.5475,-1.0852 1.3565,-1.0852 h 4.0696 c 0.7297,0 1.0813,0.4858 1.2209,1.0852 h 2.3061 c 0,-1.2827 -0.0537,-3.3913 -2.3061,-3.3913 h -6.647 c -1.2509,0 -2.3061,0.9117 -2.3061,2.1704 z"
       style="fill:#000000;fill-rule:evenodd"
       id="path4" />
    <path
       d="m 15.3303,83.7687 c 0,2.0546 -0.3697,3.5353 1.166,4.3959 1.4159,0.7934 7.7871,-0.7194 7.7871,1.1659 0,0.7204 -0.3503,1.2209 -1.0852,1.2209 h -4.4766 c -0.7099,0 -1.0296,-0.4175 -1.0852,-1.0852 h -2.3061 v 1.4922 c 0,0.8471 1.0521,1.8991 1.8992,1.8991 h 7.1896 c 2.6083,0 2.1704,-3.1088 2.1704,-4.4766 0,-2.5005 -2.6109,-2.3064 -3.7982,-2.3061 -1.0399,3e-4 -2.0814,-0.0059 -3.121,0.001 -1.1425,0.0076 -2.0339,0.0496 -2.0339,-1.0862 0,-0.8086 0.5475,-1.0852 1.3566,-1.0852 h 4.0696 c 0.7297,0 1.0812,0.4858 1.2208,1.0852 h 2.3061 c 0,-1.2827 -0.0536,-3.3913 -2.3061,-3.3913 h -6.647 c -1.2509,0 -2.3061,0.9117 -2.3061,2.1704 z"
       style="fill:#000000;fill-rule:evenodd"
       id="path5" />
    <path
       d="m 86.0057,83.7687 c 0,2.0546 -0.3697,3.5353 1.166,4.3959 1.4159,0.7934 7.7872,-0.7194 7.7872,1.1659 0,0.7204 -0.3504,1.2209 -1.0853,1.2209 h -4.4765 c -0.71,0 -1.0297,-0.4175 -1.0853,-1.0852 h -2.3061 v 1.4922 c 0,0.8471 1.0521,1.8991 1.8992,1.8991 h 7.1896 c 0.6365,0 1.1067,-0.2526 1.4595,-0.5753 0.9714,-0.8883 0.711,-2.3977 0.711,-3.9013 0,-2.5005 -2.611,-2.3064 -3.7983,-2.3061 -1.0399,3e-4 -2.0814,-0.0059 -3.121,0.001 -1.1425,0.0076 -2.0339,0.0496 -2.0339,-1.0862 0,-0.8086 0.5476,-1.0852 1.3566,-1.0852 h 4.0696 c 0.7297,0 1.0812,0.4858 1.2209,1.0852 h 2.3061 c 0,-1.2827 -0.0538,-3.3913 -2.3061,-3.3913 h -6.6471 c -1.2509,0 -2.3061,0.9117 -2.3061,2.1704 z"
       style="fill:#000000;fill-rule:evenodd"
       id="path6" />
    <path
       d="m 2.9859,83.7687 v 7.1897 c 0,0.8471 1.052,1.8991 1.8991,1.8991 h 7.1896 c 1.3082,0 2.1705,-1.2068 2.1705,-2.0348 V 86.0748 H 7.4624 v 2.3061 h 4.4766 c 0,2.6862 0.005,2.1705 -5.5618,2.1705 -0.6562,0 -1.0852,-0.429 -1.0852,-1.0852 v -4.4766 c 0,-0.8086 0.5475,-1.0852 1.3565,-1.0852 h 4.0696 c 0.7297,0 1.0812,0.4858 1.2209,1.0852 h 2.3061 c 0,-1.2827 -0.0537,-3.3913 -2.3061,-3.3913 H 5.292 c -1.251,0 -2.3061,0.9117 -2.3061,2.1704 z"
       style="fill:#000000;fill-rule:evenodd"
       id="path7" />
    <path
       d="m 70.2699,83.7687 v 7.1897 c 0,0.8471 1.0521,1.8991 1.8992,1.8991 h 7.1896 c 1.3081,0 2.1705,-1.2068 2.1705,-2.0348 v -4.7479 h -6.7827 v 2.3061 h 4.4765 c 0,2.6862 0.0051,2.1705 -5.5617,2.1705 -0.6562,0 -1.0853,-0.429 -1.0853,-1.0852 v -4.4766 c 0,-0.8086 0.5475,-1.0852 1.3566,-1.0852 h 4.0696 c 0.7297,0 1.0812,0.4858 1.2208,1.0852 h 2.3062 c 0,-1.2827 -0.0537,-3.3913 -2.3062,-3.3913 h -6.647 c -1.2509,0 -2.3061,0.9117 -2.3061,2.1704 z"
       style="fill:#000000;fill-rule:evenodd"
       id="path8" />
    <path
       d="m 27.6748,92.8575 h 2.3061 v -8.9531 h 5.4261 c 0.8283,0 1.2209,0.8394 1.2209,0.9496 0,1.3156 -0.8687,1.227 -2.17,1.2213 -1.1302,-0.005 -2.2615,-5e-4 -3.3918,-5e-4 0.1606,0.6014 5.5144,5.7371 6.1965,6.4193 0.5293,0.5295 0.7002,0.3723 1.6703,0.3645 0.7232,-0.0059 1.4482,-0.0011 2.1716,-0.0011 l -4.3734,-4.4442 c 0.6874,-0.0469 1.1216,-0.2689 1.492,-0.6076 0.9713,-0.8884 0.7109,-2.3977 0.7109,-3.9013 0,-1.2398 -1.0663,-2.3061 -2.3061,-2.3061 h -8.9531 z"
       style="fill:#000000;fill-rule:evenodd"
       id="path9" />
    <path
       d="m 55.371,51.317 4.3296,0.1276 0.0113,-1.462 14.3793,-8.5377 c -1.2986,-0.6871 -2.531,-1.427 -3.7983,-2.1705 L 55.371,47.6849 Z"
       style="fill:#000000;fill-rule:evenodd"
       id="path10" />
    <path
       d="m 65.7934,90.5514 h -4.4766 c -0.6562,0 -1.0852,-0.429 -1.0852,-1.0852 v -4.4766 c 0,-0.8086 0.5475,-1.0852 1.3565,-1.0852 h 4.0696 c 0.6705,0 1.2209,0.5504 1.2209,1.2209 v 4.0696 c 0,0.809 -0.2766,1.3565 -1.0852,1.3565 z m -7.8679,-6.7827 v 7.1897 c 0,0.8471 1.052,1.8991 1.8991,1.8991 h 7.1896 c 1.3082,0 2.1705,-1.2068 2.1705,-2.0348 v -6.9183 c 0,-1.2398 -1.0663,-2.3061 -2.3061,-2.3061 h -6.647 c -1.2509,0 -2.3061,0.9117 -2.3061,2.1704 z"
       style="fill:#000000;fill-rule:evenodd"
       id="path11" />
    <path
       d="m 113.9503,83.7687 v 7.1897 c 0,0.8471 1.052,1.8991 1.8992,1.8991 h 7.1896 c 1.3081,0 2.1705,-1.2068 2.1705,-2.0348 v -1.3565 h -2.3061 c -0.1505,0.6456 -0.2846,1.0852 -1.0853,1.0852 h -4.4765 c -0.6562,0 -1.0853,-0.429 -1.0853,-1.0852 v -4.4766 c 0,-0.8086 0.5475,-1.0852 1.3566,-1.0852 h 4.0696 c 0.7297,0 1.0812,0.4858 1.2209,1.0852 h 2.3061 c 0,-1.2827 -0.0537,-3.3913 -2.3061,-3.3913 h -6.6471 c -1.2509,0 -2.3061,0.9117 -2.3061,2.1704 z"
       style="fill:#000000;fill-rule:evenodd"
       id="path12" />
    <path
       d="m 98.2145,83.9044 h 4.4766 v 8.9531 h 2.3061 v -8.9531 h 4.4766 V 81.5983 H 98.2145 Z"
       style="fill:#000000;fill-rule:evenodd"
       id="path13" />
    <path
       d="M 45.581,92.8575 H 56.8403 V 90.5514 H 47.8871 V 81.5983 H 45.581 Z"
       style="fill:#000000;fill-rule:evenodd"
       id="path14" />
    <path
       d="m 82.6144,92.8575 h 2.3061 V 81.5983 h -2.3061 z"
       style="fill:#000000;fill-rule:evenodd"
       id="path15" />
    <path
       d="m 110.559,92.8575 h 2.3061 V 81.5983 h -2.3061 z"
       style="fill:#000000;fill-rule:evenodd"
       id="path16" />
  </g>
</svg>
