<svg width="38" height="28" viewBox="0 0 38 28" fill="none" xmlns="http://www.w3.org/2000/svg">
    <path fill-rule="evenodd" clip-rule="evenodd" d="M32.2504 3.0625H12.8604C12.2217 3.0625 11.6144 3.3425 11.1979 3.82725L3.69919 12.5773C3.35935 12.9737 3.17255 13.4787 3.17255 14.0009C3.17255 14.5231 3.35935 15.028 3.69919 15.4245L11.1997 24.1745C11.6144 24.6593 12.2217 24.9375 12.8604 24.9375H32.2504C33.4579 24.9375 34.4379 23.9575 34.4379 22.75V5.25C34.4379 4.0425 33.4579 3.0625 32.2504 3.0625ZM12.8604 0.4375H32.2504C33.5268 0.4375 34.7509 0.94453 35.6534 1.84705C36.5559 2.74957 37.0629 3.97365 37.0629 5.25V22.75C37.0629 24.0264 36.5559 25.2504 35.6534 26.153C34.7509 27.0555 33.5268 27.5625 32.2504 27.5625H12.8604C12.1662 27.5626 11.4803 27.4125 10.8495 27.1225C10.2188 26.8325 9.65829 26.4095 9.20644 25.8825L1.70594 17.1325C0.958008 16.2602 0.546875 15.1491 0.546875 14C0.546875 12.8509 0.958008 11.7398 1.70594 10.8675L9.20644 2.1175C9.65829 1.5905 10.2188 1.1675 10.8495 0.877508C11.4803 0.587522 12.1662 0.437419 12.8604 0.4375Z" fill="#292929"/>
    <path fill-rule="evenodd" clip-rule="evenodd" d="M26.178 9.57244C26.4238 9.81854 26.5618 10.1521 26.5618 10.4999C26.5618 10.8478 26.4238 11.1813 26.178 11.4274L19.178 18.4274C18.9292 18.6593 18.6001 18.7855 18.2601 18.7795C17.92 18.7735 17.5956 18.6358 17.3551 18.3953C17.1147 18.1548 16.9769 17.8304 16.9709 17.4904C16.9649 17.1503 17.0911 16.8213 17.323 16.5724L24.323 9.57244C24.5691 9.32666 24.9027 9.1886 25.2505 9.1886C25.5983 9.1886 25.9319 9.32666 26.178 9.57244Z" fill="#292929"/>
    <path fill-rule="evenodd" clip-rule="evenodd" d="M17.3233 9.57244C17.5694 9.32666 17.903 9.1886 18.2508 9.1886C18.5986 9.1886 18.9322 9.32666 19.1783 9.57244L26.1783 16.5724C26.4101 16.8213 26.5364 17.1503 26.5304 17.4904C26.5244 17.8304 26.3866 18.1548 26.1461 18.3953C25.9057 18.6358 25.5812 18.7735 25.2412 18.7795C24.9012 18.7855 24.5721 18.6593 24.3233 18.4274L17.3233 11.4274C17.0775 11.1813 16.9395 10.8478 16.9395 10.4999C16.9395 10.1521 17.0775 9.81854 17.3233 9.57244Z" fill="#292929"/>
</svg>
