<svg width="32" height="32" viewBox="0 0 32 32" fill="none" xmlns="http://www.w3.org/2000/svg">
    <path
        d="M30.2453 12.5253L27.7385 12.2067C27.5341 11.577 27.2804 10.9645 26.9798 10.3747L28.5279 8.38133C28.8303 7.99862 28.981 7.51778 28.951 7.0309C28.9209 6.54403 28.7124 6.08533 28.3652 5.74267L26.2651 3.64267C25.9222 3.2934 25.4625 3.08296 24.9741 3.05171C24.4857 3.02047 24.0029 3.1706 23.6183 3.47333L21.6276 5.02133C21.0374 4.72048 20.4244 4.46679 19.7942 4.26267L19.4755 1.76C19.4175 1.27515 19.1838 0.828356 18.8187 0.504063C18.4536 0.179771 17.9824 0.00045214 17.4941 0L14.5073 0C13.4979 0 12.6459 0.756 12.5259 1.756L12.2072 4.26267C11.5768 4.46622 10.9637 4.71992 10.3738 5.02133L8.38168 3.47333C7.99872 3.17144 7.51798 3.02115 7.03125 3.05115C6.54452 3.08115 6.08589 3.28935 5.74291 3.636L3.64282 5.73467C3.29317 6.07757 3.0825 6.53753 3.05125 7.02625C3.01999 7.51498 3.17036 7.99802 3.47348 8.38267L5.02154 10.3747C4.72035 10.9642 4.46665 11.5768 4.26284 12.2067L1.76007 12.5253C0.756032 12.6453 0 13.4973 0 14.5067V17.4933C0 18.5027 0.756032 19.3547 1.75607 19.4747L4.26284 19.7933C4.46952 20.4293 4.7242 21.0427 5.02154 21.6253L3.47348 23.6187C3.17101 24.0014 3.02035 24.4822 3.05037 24.9691C3.08038 25.456 3.28896 25.9147 3.63615 26.2573L5.73624 28.3573C6.07956 28.7059 6.53928 28.9157 7.02755 28.9467C7.51581 28.9777 7.99838 28.8277 8.38302 28.5253L10.3751 26.9773C10.9578 27.276 11.5711 27.5307 12.2072 27.736L12.5259 30.2373C12.6459 31.244 13.4979 32 14.5073 32H17.4941C18.5034 32 19.3555 31.244 19.4755 30.244L19.7942 27.7373C20.4238 27.533 21.0364 27.2793 21.6262 26.9787L23.6196 28.5267C24.4263 29.1533 25.5651 29.08 26.2584 28.364L28.3585 26.264C28.7078 25.9212 28.9182 25.4615 28.9495 24.9731C28.9807 24.4846 28.8306 24.0019 28.5279 23.6173L26.9798 21.6253C27.2785 21.0427 27.5331 20.4293 27.7385 19.7933L30.2399 19.4747C30.7248 19.4166 31.1716 19.183 31.4959 18.8179C31.8202 18.4529 31.9995 17.9816 32 17.4933V14.5067C32.0003 14.019 31.8219 13.5481 31.4986 13.1831C31.1753 12.818 30.7294 12.584 30.2453 12.5253ZM16.0007 22.6667C12.3245 22.6667 9.33372 19.676 9.33372 16C9.33372 12.324 12.3245 9.33333 16.0007 9.33333C19.6768 9.33333 22.6676 12.324 22.6676 16C22.6676 19.676 19.6768 22.6667 16.0007 22.6667Z"
        fill="#ADADAD" />
</svg>
